<svg width="540" height="550" viewBox="0 0 540 550" fill="none" xmlns="http://www.w3.org/2000/svg">
<rect x="0.5" y="50.5" width="499" height="499" rx="89.5" fill="#49E946" stroke="#49E946"/>
<rect x="40.5" y="0.5" width="499" height="499" rx="89.5" fill="black" stroke="black"/>
<path d="M436.286 180.5C436.286 196.792 423.302 210 407.286 210C391.27 210 350.286 181.5 381.286 170C402.286 153.5 378.27 134 394.286 134C410.302 134 436.286 164.208 436.286 180.5Z" fill="#A357DF"/>
<path d="M278 180.5C278 196.792 265.016 210 249 210C232.984 210 192 181.5 223 170C244 153.5 219.984 134 236 134C252.016 134 278 164.208 278 180.5Z" fill="#A357DF"/>
<path d="M172.737 350.556L135.406 269.375C130.86 259.49 143.139 250.481 151.204 257.784L199.564 301.577C203.376 305.029 209.185 305.027 212.994 301.572L236.849 279.936C240.234 276.866 245.269 276.481 249.081 279.001L286.305 303.607C289.953 306.018 294.745 305.779 298.136 303.017L331.126 276.136C335.069 272.923 340.796 273.182 344.434 276.738L369.322 301.073C373.105 304.773 379.116 304.884 383.034 301.328L408.4 278.302C412.927 274.192 420.051 275.072 423.442 280.16L429.728 289.591C433.06 294.59 440.017 295.543 444.572 291.624L471.793 268.201C480.489 260.719 492.884 271.382 486.785 281.098L445.171 347.391C441.086 353.897 431.496 353.56 427.879 346.783L414.353 321.439C410.919 315.003 401.971 314.292 397.563 320.104L370.818 355.373C366.572 360.971 358.028 360.561 354.339 354.58L335.275 323.677C331.694 317.872 323.481 317.276 319.1 322.504L293.54 353.003C289.585 357.722 282.346 357.781 278.316 353.126L248.805 319.046C245.326 315.029 239.314 314.434 235.115 317.691L187.952 354.279C182.865 358.226 175.428 356.406 172.737 350.556Z" fill="#A357DF" stroke="#9345D0" stroke-width="0.84466"/>
</svg>
