<svg width="451" height="451" viewBox="0 0 451 451" fill="none" xmlns="http://www.w3.org/2000/svg">
<path d="M225.5 375.833C308.527 375.833 375.833 308.527 375.833 225.5C375.833 142.473 308.527 75.1667 225.5 75.1667C142.473 75.1667 75.1667 142.473 75.1667 225.5C75.1667 308.527 142.473 375.833 225.5 375.833Z" fill="#FCEA2B"/>
<path d="M191.036 334.329C164.126 324.996 150.563 304.255 150.563 279.936H151.151C151.151 279.936 227.179 299.121 299.498 280.35L300.504 279.936C300.714 292.159 296.891 304.11 289.628 313.942C282.364 323.775 272.065 330.941 260.32 334.333" fill="white"/>
<path d="M253.927 308.74C253.927 308.74 263.436 363.981 247.26 377.263L247.42 377.126C244.568 380.063 241.156 382.399 237.386 383.993C233.615 385.588 229.563 386.409 225.469 386.409C221.375 386.409 217.323 385.588 213.552 383.993C209.782 382.399 206.37 380.063 203.518 377.126C187.342 363.847 196.851 308.603 196.851 308.603" fill="#B1CC33"/>
<path d="M191.036 334.329C164.126 324.996 150.563 304.255 150.563 279.936H151.151C151.151 279.936 227.179 299.121 299.499 280.35L300.504 279.936C300.714 292.159 296.891 304.11 289.628 313.942C282.364 323.775 272.065 330.941 260.32 334.333" stroke="black" stroke-width="12.5278" stroke-linecap="round" stroke-linejoin="round"/>
<path d="M127.027 170.378C131.537 161.701 139.105 155.005 148.266 151.586C157.067 147.206 167.185 146.266 176.642 148.95" stroke="black" stroke-width="12.5278" stroke-linecap="round" stroke-linejoin="round"/>
<path d="M318.769 170.378C313.943 161.923 306.507 155.259 297.575 151.386C288.643 147.513 278.696 146.638 269.225 148.893" stroke="black" stroke-width="12.5278" stroke-linecap="round" stroke-linejoin="round"/>
<path d="M277.641 359.844C308.986 347.675 335.088 324.924 351.424 295.534C367.76 266.144 373.301 231.965 367.087 198.919C360.874 165.873 343.297 136.042 317.402 114.592C291.507 93.1421 258.925 81.4256 225.3 81.472C191.675 81.5184 159.125 93.3248 133.29 114.846C107.454 136.367 89.9598 166.247 83.8377 199.31C77.7155 232.373 83.351 266.536 99.768 295.881C116.185 325.226 142.349 347.905 173.728 359.988" stroke="black" stroke-width="12.5278" stroke-linecap="round" stroke-linejoin="round"/>
<path d="M127.027 170.378C131.537 161.701 139.105 155.005 148.266 151.586C157.067 147.206 167.185 146.266 176.642 148.95" stroke="black" stroke-width="12.5278" stroke-linecap="round" stroke-linejoin="round"/>
<path d="M318.769 170.378C313.943 161.923 306.507 155.259 297.575 151.386C288.643 147.513 278.696 146.638 269.225 148.893" stroke="black" stroke-width="12.5278" stroke-linecap="round" stroke-linejoin="round"/>
<path d="M253.928 308.74C253.928 308.74 263.436 363.981 247.26 377.263L247.42 377.126C244.568 380.063 241.156 382.399 237.386 383.993C233.615 385.588 229.563 386.409 225.469 386.409C221.375 386.409 217.323 385.588 213.553 383.993C209.782 382.399 206.37 380.063 203.518 377.126C187.342 363.847 196.851 308.603 196.851 308.603" stroke="black" stroke-width="12.5278" stroke-linecap="round" stroke-linejoin="round"/>
<path d="M237.385 332.901C236.482 330.433 234.803 328.326 232.599 326.896C230.396 325.465 227.787 324.79 225.166 324.971C223.673 324.628 222.122 324.626 220.628 324.965C219.134 325.304 217.736 325.976 216.537 326.93C215.339 327.885 214.371 329.097 213.706 330.477C213.041 331.857 212.695 333.369 212.695 334.901C212.695 336.433 213.041 337.946 213.706 339.326C214.371 340.706 215.339 341.918 216.537 342.872C217.736 343.827 219.134 344.498 220.628 344.838C222.122 345.177 223.673 345.175 225.166 344.832L224.916 344.869C226.409 344.526 227.96 344.524 229.454 344.863C230.948 345.203 232.346 345.875 233.544 346.829C234.743 347.783 235.711 348.995 236.376 350.375C237.041 351.756 237.387 353.268 237.387 354.8C237.387 356.332 237.041 357.844 236.376 359.224C235.711 360.604 234.743 361.816 233.544 362.771C232.346 363.725 230.948 364.397 229.454 364.736C227.96 365.076 226.409 365.074 224.916 364.731V364.731C222.295 364.911 219.686 364.236 217.482 362.806C215.279 361.376 213.599 359.268 212.697 356.801" stroke="black" stroke-width="12.5278" stroke-linecap="round" stroke-linejoin="round"/>
<path d="M225.039 324.971V315.503" stroke="black" stroke-width="12.5278" stroke-linecap="round" stroke-linejoin="round"/>
<path d="M225.039 374.198V364.731" stroke="black" stroke-width="12.5278" stroke-linecap="round" stroke-linejoin="round"/>
<path d="M192.833 209.519H146.736C144.32 209.519 142.361 207.56 142.361 205.144V205.144C142.361 202.727 144.32 200.769 146.736 200.769H192.824" fill="black"/>
<path d="M166.5 225.074C169.53 225.074 171.986 222.898 171.986 220.213C171.986 217.528 169.53 215.352 166.5 215.352C163.47 215.352 161.014 217.528 161.014 220.213C161.014 222.898 163.47 225.074 166.5 225.074Z" fill="black"/>
<path d="M166.5 195.908C169.53 195.908 171.986 193.731 171.986 191.046C171.986 188.362 169.53 186.185 166.5 186.185C163.47 186.185 161.014 188.362 161.014 191.046C161.014 193.731 163.47 195.908 166.5 195.908Z" fill="black"/>
<path d="M188.011 200.481H147.186C144.422 200.481 142.181 202.722 142.181 205.486C142.181 208.25 144.422 210.491 147.186 210.491H188.011C190.775 210.491 193.016 208.25 193.016 205.486C193.016 202.722 190.775 200.481 188.011 200.481Z" stroke="black" stroke-width="2" stroke-miterlimit="10" stroke-linecap="round" stroke-linejoin="round"/>
<path d="M166.5 225.074C169.53 225.074 171.986 222.898 171.986 220.213C171.986 217.528 169.53 215.352 166.5 215.352C163.47 215.352 161.014 217.528 161.014 220.213C161.014 222.898 163.47 225.074 166.5 225.074Z" stroke="black" stroke-width="2" stroke-miterlimit="10" stroke-linecap="round" stroke-linejoin="round"/>
<path d="M166.5 195.908C169.53 195.908 171.986 193.731 171.986 191.046C171.986 188.362 169.53 186.185 166.5 186.185C163.47 186.185 161.014 188.362 161.014 191.046C161.014 193.731 163.47 195.908 166.5 195.908Z" stroke="black" stroke-width="2" stroke-miterlimit="10" stroke-linecap="round" stroke-linejoin="round"/>
<path d="M266.4 205.162L263.556 202.322L255.42 194.186L261.695 187.911L269.835 196.051L272.534 198.746L272.68 198.892L275.524 196.051L283.665 187.911L289.94 194.186L281.804 202.322L278.959 205.163L279.059 205.263L281.103 207.304L289.94 216.141L283.665 222.416L274.826 213.577L272.678 211.432L272.619 211.495L270.533 213.577L261.695 222.416L255.42 216.141L264.257 207.304L266.369 205.194L266.4 205.162Z" fill="black"/>
<path d="M266.369 205.194C266.386 205.176 266.386 205.148 266.368 205.131L263.556 202.322L258.557 197.323C256.824 195.591 256.824 192.781 258.557 191.048V191.048C260.29 189.315 263.099 189.315 264.832 191.048L269.835 196.051L272.534 198.746V198.746C272.614 198.827 272.745 198.827 272.825 198.746L275.524 196.051L280.527 191.048C282.26 189.315 285.069 189.315 286.802 191.048V191.048C288.535 192.781 288.535 195.591 286.802 197.323L281.804 202.322L279.059 205.063C279.003 205.118 279.003 205.208 279.059 205.263V205.263L281.103 207.304L286.802 213.003C288.535 214.736 288.535 217.546 286.802 219.278V219.278C285.069 221.011 282.26 221.011 280.527 219.278L274.826 213.577L272.739 211.493C272.705 211.46 272.651 211.46 272.619 211.495V211.495L270.533 213.577L264.832 219.278C263.099 221.011 260.29 221.011 258.557 219.278V219.278C256.824 217.546 256.824 214.736 258.557 213.003L264.257 207.304L266.369 205.194V205.194Z" stroke="black" stroke-width="2" stroke-miterlimit="10" stroke-linecap="round" stroke-linejoin="round"/>
</svg>
